<?xml version="1.0" standalone="no"?>
<!DOCTYPE svg PUBLIC "-//W3C//DTD SVG 20010904//EN"
 "http://www.w3.org/TR/2001/REC-SVG-20010904/DTD/svg10.dtd">
<svg version="1.0" xmlns="http://www.w3.org/2000/svg"
 width="336.000000pt" height="336.000000pt" viewBox="0 0 336.000000 336.000000"
 preserveAspectRatio="xMidYMid meet">

<g transform="translate(0.000000,336.000000) scale(0.100000,-0.100000)"
fill="#000000" stroke="none">
<path d="M3120 3354 c-45 -5 -343 -27 -405 -29 -265 -11 -667 -44 -733 -61
-61 -15 -117 -46 -147 -80 -19 -23 -24 -23 -133 -17 -62 3 -110 8 -108 10 8 9
-58 60 -92 71 -18 6 -50 9 -70 7 -20 -2 -93 -9 -161 -15 -265 -24 -363 -75
-436 -228 -40 -84 -82 -59 -132 77 -20 56 -34 78 -57 92 -30 19 -86 25 -99 12
-4 -3 5 -27 20 -52 44 -75 78 -151 109 -241 27 -78 29 -96 29 -230 0 -177 -11
-223 -70 -284 -37 -39 -51 -46 -120 -61 -77 -18 -214 -17 -316 1 -37 6 -37 6
-75 -62 -29 -53 -37 -77 -35 -110 2 -37 -3 -49 -36 -86 -21 -24 -41 -44 -45
-46 -5 -2 -8 -114 -8 -249 l0 -245 27 17 c21 14 73 30 73 22 -3 -40 -72 -193
-90 -199 -7 -2 -10 -22 -8 -48 l3 -45 87 170 c151 293 180 343 221 370 22 16
37 34 37 46 0 20 39 81 41 63 0 -5 6 7 13 26 11 29 17 34 37 31 13 -1 26 -6
29 -10 15 -20 62 -41 75 -34 14 8 84 143 100 193 4 13 40 92 80 175 39 82 78
166 85 185 8 19 39 90 71 156 31 67 73 161 94 208 35 83 36 87 21 117 -22 45
-20 61 3 23 27 -44 34 -47 93 -30 130 36 215 26 189 -23 -6 -11 -19 -26 -29
-33 -23 -18 -93 -104 -124 -153 -45 -72 -90 -240 -59 -221 5 4 8 -2 6 -11 -1
-10 -7 -17 -13 -16 -5 1 -10 -12 -10 -30 0 -42 -3 -83 -9 -129 -4 -31 -9 -38
-28 -38 -12 0 -29 -7 -36 -16 -16 -19 -15 -90 2 -110 6 -8 15 -32 19 -53 6
-34 5 -38 -11 -34 -22 6 -35 -48 -22 -97 l9 -34 19 39 18 40 14 -40 c11 -34
11 -45 -1 -82 -14 -41 -14 -43 4 -43 10 0 22 -5 26 -12 4 -6 3 -8 -3 -5 -6 4
-9 -7 -8 -26 3 -40 -4 -59 -18 -50 -5 3 -7 1 -3 -5 3 -5 3 -12 -1 -15 -5 -2
-2 -2 5 0 8 1 12 -3 9 -9 -2 -7 -11 -12 -18 -10 -9 2 -8 -3 4 -16 9 -10 17
-32 17 -48 0 -17 5 -35 10 -40 8 -8 3 -35 -15 -90 -14 -43 -24 -89 -22 -101 2
-12 0 -20 -4 -17 -5 3 -9 -8 -9 -24 0 -26 -8 -52 -39 -127 -26 -63 -30 -75
-21 -75 5 0 12 5 15 10 13 21 30 9 31 -21 1 -25 -2 -30 -17 -26 -11 3 -19 1
-19 -4 0 -5 -13 -8 -29 -7 -16 1 -29 5 -28 8 2 6 -8 10 -24 10 -5 0 -8 -4 -5
-8 11 -19 -12 -35 -40 -27 l-29 8 30 7 c28 7 28 8 5 9 -14 0 -34 -5 -45 -13
-19 -13 -29 -16 -125 -34 -25 -4 -52 -12 -59 -17 -10 -5 -12 -4 -7 3 4 7 3 12
-3 12 -5 0 -12 -9 -16 -19 -3 -11 -13 -25 -22 -33 -12 -9 -15 -9 -9 0 5 8 1
12 -10 12 -14 0 -15 3 -6 12 10 10 15 10 21 0 6 -11 9 -9 13 6 5 17 2 18 -36
11 -22 -5 -44 -8 -47 -9 -8 0 -5 -77 4 -86 16 -16 5 -21 -39 -18 -45 3 -64 -2
-114 -31 l-24 -14 34 -15 c28 -12 31 -15 13 -16 -13 0 -23 -4 -23 -10 0 -5 -5
-10 -11 -10 -6 0 -9 7 -5 15 3 8 1 15 -4 15 -6 0 -10 6 -10 14 0 10 -10 9 -42
-7 -24 -12 -49 -27 -56 -34 -11 -11 -9 -13 13 -13 16 0 24 -4 19 -11 -3 -6
-15 -9 -25 -6 -11 3 -19 1 -19 -4 0 -6 -8 -9 -17 -7 -12 2 -19 -5 -21 -21 -2
-13 -10 -30 -17 -37 -11 -11 -14 -10 -18 6 -3 11 -2 18 3 15 4 -3 10 1 13 9 4
10 0 12 -14 9 -10 -3 -19 -12 -19 -19 0 -8 -4 -13 -9 -11 -14 3 -51 -44 -44
-56 4 -6 0 -8 -9 -5 -11 5 -14 1 -10 -17 2 -12 -2 -26 -9 -30 -9 -6 -11 -2 -7
13 4 12 3 24 -1 26 -4 3 -8 -11 -9 -29 -2 -27 1 -33 12 -29 9 4 13 -1 13 -13
-1 -10 3 -17 10 -16 8 2 10 -4 6 -14 -6 -15 -7 -15 -18 1 -17 22 -25 20 -25
-8 0 -13 7 -26 15 -30 8 -3 15 -12 15 -21 0 -18 46 -21 53 -2 4 10 6 10 6 0 1
-7 5 -13 10 -13 4 0 6 11 3 25 -5 26 3 31 27 16 8 -5 11 -16 8 -25 -4 -9 -2
-16 2 -16 5 0 7 -9 4 -20 -6 -21 -18 -26 -27 -11 -4 5 -1 11 6 13 6 2 -12 4
-40 5 -29 0 -52 -3 -52 -8 0 -5 5 -9 10 -9 6 0 15 -12 20 -26 7 -16 16 -24 24
-21 8 3 22 -3 32 -14 11 -12 24 -17 36 -13 27 8 12 -21 -18 -35 -33 -15 -34
-14 -29 10 3 15 1 18 -8 12 -10 -8 -22 -9 -42 -4 -3 0 -2 9 4 19 7 13 3 21
-15 35 -13 10 -24 13 -24 7 0 -6 -5 -8 -10 -5 -6 4 -10 -13 -10 -43 0 -45 2
-50 20 -45 16 4 19 2 14 -11 -4 -10 -13 -15 -20 -12 -20 8 -18 3 16 -32 45
-48 40 -80 -8 -46 -22 15 -22 15 -22 -41 0 -31 4 -54 8 -51 5 3 18 -3 30 -14
17 -16 22 -17 32 -5 6 8 17 12 25 9 7 -3 16 -1 20 5 3 7 -2 11 -15 11 -31 0
-36 27 -10 50 19 16 20 20 7 20 -10 0 -17 5 -17 10 0 6 9 10 19 10 16 0 18 6
14 34 -5 37 15 61 23 29 4 -15 12 -19 30 -15 13 2 24 1 24 -2 0 -18 -22 -46
-35 -46 -10 0 -15 -10 -15 -30 0 -34 20 -33 35 3 11 24 28 26 33 3 2 -8 -5
-16 -15 -19 -17 -4 -17 -5 0 -6 9 0 17 -7 17 -15 0 -8 6 -16 13 -19 6 -2 8 -8
4 -13 -5 -5 -17 1 -27 14 -20 25 -50 30 -50 8 0 -8 7 -13 16 -12 9 0 19 -5 21
-11 3 -8 -4 -13 -16 -13 -12 0 -24 8 -27 18 -3 9 -8 23 -10 30 -2 7 -9 10 -14
7 -8 -5 -7 -11 1 -21 9 -11 8 -19 -3 -36 -7 -13 -13 -33 -12 -46 1 -16 -3 -22
-15 -20 -9 2 -15 11 -13 22 2 11 -1 15 -7 11 -6 -3 -11 -12 -11 -20 0 -7 -7
-16 -16 -19 -24 -9 -26 -8 -19 13 3 12 0 21 -9 24 -13 5 -15 -4 -13 -53 2 -55
3 -58 20 -43 15 15 17 15 17 0 0 -9 -5 -19 -10 -22 -6 -4 -7 -11 -4 -17 5 -7
1 -9 -9 -5 -12 5 -17 1 -17 -13 0 -24 25 -26 47 -5 14 14 17 14 34 -1 11 -10
19 -12 19 -6 0 7 -4 12 -10 12 -14 0 -13 33 2 48 22 22 31 12 24 -28 l-6 -40
37 0 c20 0 44 7 53 15 27 25 73 34 88 19 6 -7 12 -18 12 -24 0 -5 5 -10 11
-10 5 0 8 4 5 9 -8 12 4 95 15 112 8 11 12 10 24 -5 8 -11 15 -15 15 -10 0 6
11 16 25 22 22 10 25 9 25 -8 0 -24 -28 -52 -49 -48 -15 3 -51 -24 -51 -38 0
-3 11 -3 24 0 14 3 32 3 42 -1 16 -6 16 -7 -2 -20 -16 -12 -15 -13 13 -13 17
0 42 9 57 21 26 20 37 14 14 -9 -9 -9 -8 -12 5 -12 10 0 17 7 16 18 -1 22 -17
62 -18 44 -2 -24 -46 -9 -49 17 -4 25 3 25 51 6 12 -5 17 -2 17 9 0 9 6 13 15
11 49 -16 48 -14 34 -31 -7 -8 -21 -13 -31 -11 -10 3 -18 1 -18 -4 0 -5 5 -9
10 -9 6 0 16 -11 22 -25 12 -26 42 -34 52 -12 5 9 7 9 12 0 3 -7 14 -13 24
-13 20 0 43 23 33 34 -4 4 1 4 10 0 10 -4 16 -13 13 -20 -4 -10 4 -14 28 -14
29 0 33 3 29 20 -3 11 -9 20 -15 20 -5 0 -4 8 1 19 8 14 6 22 -9 36 -18 17
-17 45 2 45 6 0 7 -7 4 -16 -3 -8 -2 -12 4 -9 6 3 11 -4 12 -17 6 -83 15 -98
59 -98 22 0 39 5 39 11 0 5 5 7 10 4 6 -3 10 -1 10 4 0 16 18 13 22 -3 2 -12
8 -11 27 5 l24 20 -21 15 c-18 12 -20 18 -10 39 6 14 15 25 20 25 13 0 9 -38
-4 -43 -9 -4 -9 -6 1 -6 8 -1 25 9 38 21 l23 21 0 -21 c0 -15 -6 -22 -19 -22
-26 0 -34 -15 -17 -29 10 -9 16 -8 26 4 20 24 33 18 27 -14 l-6 -30 60 2 c52
2 59 4 55 19 -4 10 -9 27 -12 38 -4 11 -2 20 4 20 16 0 34 -38 26 -52 -5 -8
-2 -9 9 -5 11 4 17 1 17 -8 0 -13 78 -15 595 -15 578 0 595 1 605 19 7 13 7
22 0 26 -5 3 -15 15 -20 26 -10 18 -8 19 16 15 33 -6 36 -10 39 -38 1 -13 3
-29 4 -35 1 -10 27 -13 96 -13 82 0 95 2 95 17 0 15 1 15 18 0 27 -25 60 -21
74 8 12 27 32 23 25 -6 -5 -17 2 -18 76 -16 45 1 73 3 64 5 -10 2 -15 7 -12
12 3 5 -4 14 -16 20 -17 10 -23 8 -35 -9 -17 -24 -54 -24 -54 1 0 9 5 20 10
23 8 5 7 11 -1 21 -19 24 4 39 26 18 16 -17 18 -17 30 -1 18 25 28 21 21 -10
-5 -23 -4 -25 4 -10 6 9 18 17 25 17 19 0 19 -9 -1 -31 -15 -17 -15 -19 10
-30 14 -7 26 -16 26 -21 0 -12 62 -10 80 3 12 8 10 9 -7 4 -34 -9 -28 1 7 14
18 6 28 6 25 1 -4 -6 -2 -10 3 -10 6 0 12 7 16 15 9 25 29 17 24 -10 -4 -17
-1 -25 8 -25 8 0 14 6 14 14 0 8 7 17 16 20 24 9 27 8 21 -14 -4 -17 0 -20 33
-20 29 0 39 4 43 20 4 15 -1 22 -21 27 -31 7 -42 20 -42 47 0 15 3 16 15 6 8
-7 15 -19 15 -26 0 -8 5 -14 10 -14 16 0 12 37 -5 44 -8 3 -20 17 -25 31 -6
15 -14 23 -20 20 -5 -3 -10 3 -10 13 0 11 -7 22 -15 26 -8 3 -15 13 -15 23 1
17 1 17 15 -1 7 -10 18 -15 24 -11 6 3 9 0 6 -7 -6 -17 3 -29 38 -51 15 -10
27 -25 28 -35 0 -14 2 -14 9 3 8 19 9 19 9 -2 1 -12 6 -25 11 -28 17 -10 23
23 10 54 -15 38 -5 77 16 60 8 -6 14 -21 14 -33 1 -19 2 -19 11 -3 5 9 14 17
19 17 14 0 12 -34 -2 -48 -15 -15 -3 -16 21 0 22 13 55 4 48 -15 -6 -17 -69
-11 -83 9 -10 13 -12 13 -18 -1 -3 -9 -2 -14 2 -11 5 3 9 -9 9 -27 0 -18 -2
-26 -4 -19 -7 20 -22 14 -38 -18 -24 -46 -20 -50 50 -50 61 0 65 1 65 23 0 12
4 28 9 36 7 11 10 10 15 -6 4 -11 4 -28 0 -37 -4 -11 -1 -16 10 -16 15 0 20
14 19 49 -2 22 15 -2 19 -29 2 -14 5 61 6 166 3 188 2 192 -19 197 -22 6 -18
27 7 27 10 0 14 13 14 47 0 37 -3 44 -12 35 -7 -7 -20 -12 -31 -12 -14 0 -17
-5 -12 -23 4 -15 3 -18 -3 -9 -8 11 -10 11 -15 -2 -3 -8 -15 -14 -26 -13 -25
2 -26 7 -6 33 20 26 19 29 -11 31 -30 1 -48 23 -33 38 6 6 16 5 30 -3 19 -12
20 -11 14 20 -4 22 -1 40 9 53 14 19 15 19 22 1 4 -10 2 -33 -5 -51 -7 -22 -8
-40 -2 -56 l10 -24 0 23 c1 20 5 23 34 20 29 -3 32 0 35 26 3 23 0 27 -12 23
-22 -8 -32 14 -13 27 11 9 13 16 5 31 -9 15 -8 17 7 11 13 -5 16 -2 11 10 -3
8 -6 18 -6 20 0 3 -6 2 -12 -2 -9 -5 -9 -2 1 9 12 15 11 17 -4 17 -11 0 -15 5
-11 15 3 8 1 15 -4 15 -6 0 -10 7 -10 16 0 8 4 13 9 10 5 -3 12 2 16 12 14 31
13 42 -1 42 -9 0 -12 -4 -9 -10 4 -7 -3 -7 -20 0 -24 9 -26 8 -20 -10 5 -15 3
-18 -9 -14 -9 3 -17 16 -17 28 -1 17 -2 17 -6 3 -3 -10 -10 -14 -16 -11 -8 5
-8 2 1 -7 14 -15 16 -49 3 -49 -5 0 -14 7 -21 15 -7 8 -24 15 -37 15 -33 0
-24 24 10 28 33 4 35 27 5 59 -18 20 -19 23 -5 23 9 0 17 -5 17 -11 0 -5 5 -7
11 -4 6 4 10 1 8 -6 -5 -38 13 -48 48 -26 6 4 17 1 25 -6 19 -19 52 -6 56 21
3 21 -6 27 -37 23 -18 -3 -122 110 -114 123 3 6 2 8 -2 3 -5 -4 -17 0 -26 9
-10 9 -29 18 -41 20 -13 2 -35 7 -50 10 -21 5 -28 3 -28 -9 0 -8 6 -18 13 -21
6 -3 -2 -5 -20 -3 -18 2 -30 1 -28 -2 7 -12 -21 -37 -42 -38 -31 -2 -30 25 1
37 31 12 47 35 17 25 -12 -4 -21 -2 -21 4 0 15 33 14 48 -1 9 -9 12 -8 12 4 0
9 8 18 18 21 13 3 11 7 -12 16 -16 6 -26 14 -23 18 10 9 -25 32 -48 33 -12 0
-27 6 -34 12 -11 11 -12 10 -6 -2 8 -13 6 -13 -7 -2 -26 21 -75 23 -94 5 -14
-15 -18 -15 -28 -2 -6 8 -23 14 -38 14 -26 -1 -26 0 -11 17 13 14 18 16 25 6
4 -8 8 -8 8 -2 0 18 -12 24 -25 14 -9 -8 -14 -4 -19 13 -3 13 -11 24 -18 25
-7 0 -23 4 -36 7 -19 6 -21 4 -15 -11 5 -13 3 -16 -9 -11 -10 3 -19 0 -22 -8
-3 -8 -20 -21 -38 -29 -18 -8 -27 -15 -20 -15 17 -1 15 -21 -3 -21 -8 0 -15 5
-15 10 0 6 -11 8 -26 4 -21 -5 -25 -3 -22 12 2 12 -4 19 -17 21 l-20 3 20 -10
c17 -8 14 -9 -15 -7 -31 2 -35 -1 -35 -22 0 -13 -7 -26 -15 -28 -12 -4 -12 -3
-1 5 10 8 11 10 1 14 -7 2 -24 -6 -38 -19 -30 -28 -41 -29 -39 -4 1 15 4 17
14 9 10 -8 13 -5 13 10 0 15 -5 20 -15 16 -9 -4 -15 0 -15 10 0 9 -4 16 -9 16
-5 0 -11 9 -14 20 -3 11 -2 18 3 15 11 -7 20 19 26 74 3 25 7 48 9 51 7 11
-17 90 -25 85 -5 -3 -11 -1 -15 5 -3 5 -1 10 5 10 7 0 10 7 6 15 -3 8 -2 15 2
15 4 0 7 31 7 69 0 43 -4 67 -10 64 -5 -3 -4 0 2 8 7 7 13 24 12 38 0 15 -3
20 -6 14 -9 -23 -23 -13 -19 12 3 15 1 23 -5 20 -5 -4 -7 -11 -4 -16 3 -5 -1
-6 -10 -3 -13 5 -13 9 5 24 23 20 26 35 5 27 -8 -4 -17 -1 -21 5 -4 6 -3 8 3
5 14 -9 29 12 31 40 0 15 -4 20 -14 16 -9 -3 -14 1 -14 12 0 9 5 13 10 10 6
-4 10 10 10 33 0 26 5 42 15 46 8 3 15 10 15 16 0 6 -4 9 -9 6 -4 -3 0 11 10
32 10 20 28 87 40 147 12 61 28 117 35 126 17 19 17 39 1 61 -11 14 -166 54
-245 63 -24 2 -44 15 -24 15 7 0 12 7 12 16 0 9 5 12 12 8 7 -4 8 -3 4 5 -4 6
-12 9 -17 6 -5 -4 -9 1 -9 9 0 9 -8 16 -17 16 -15 0 -16 2 -3 10 12 8 10 10
-8 10 -13 0 -21 -4 -18 -8 3 -5 -1 -9 -9 -9 -11 0 -12 4 -4 14 8 9 7 14 -4 19
-9 3 -21 3 -26 -1 -6 -3 -20 -1 -31 5 -16 9 -20 8 -20 -5 0 -14 -2 -14 -14 -2
-15 15 -76 12 -76 -4 0 -6 -9 -5 -20 1 -16 8 -20 8 -20 -3 0 -10 -11 -14 -32
-13 -30 1 -33 -2 -33 -29 -1 -39 12 -52 49 -48 27 3 28 2 9 -6 -33 -15 -183
-25 -248 -16 -42 5 -55 10 -51 20 3 8 1 17 -4 20 -6 4 -10 15 -10 25 0 11 -12
24 -29 31 -20 9 -26 16 -18 21 8 5 7 8 -4 8 -9 0 -19 6 -22 13 -3 7 -24 14
-48 16 -132 10 -230 -3 -214 -30 4 -5 1 -9 -4 -9 -6 0 -11 -7 -11 -15 0 -8 -7
-15 -15 -15 -8 0 -21 -15 -29 -34 -12 -30 -19 -34 -58 -38 -23 -3 -44 -4 -46
-2 -18 13 4 115 29 134 3 3 9 15 13 28 4 12 13 22 21 22 20 0 37 100 26 152
-13 58 12 106 109 211 58 64 118 97 180 102 62 5 124 17 135 26 6 4 20 8 30 7
11 0 60 3 108 7 79 7 89 6 102 -11 13 -16 14 -16 9 -2 -6 16 -3 17 27 4 19 -7
42 -12 52 -11 9 2 17 -1 17 -7 0 -6 7 -4 17 3 15 12 16 12 8 -1 -8 -13 -7 -13
8 -1 12 9 17 10 17 2 0 -7 4 -10 9 -6 5 3 15 0 23 -7 14 -13 33 -20 55 -21 32
-1 178 -182 189 -236 3 -14 12 -38 20 -54 8 -15 12 -32 8 -38 -3 -6 0 -15 7
-20 11 -7 10 -9 -4 -9 -17 0 -17 -1 -3 -16 9 -8 14 -20 11 -25 -4 -5 1 -9 9
-9 9 0 13 -6 10 -13 -3 -8 2 -20 10 -27 13 -10 17 -9 22 4 3 9 1 23 -6 31 -6
8 -10 20 -7 27 15 43 -70 219 -150 311 -66 77 -68 78 -82 105 -11 20 -9 23 16
33 16 6 57 9 96 6 51 -5 67 -3 67 7 0 8 7 20 16 27 14 11 18 10 30 -5 12 -17
25 -18 176 -13 297 11 631 26 740 33 l108 7 0 138 0 139 -107 -1 c-60 -1 -119
-3 -133 -5z m-2019 -726 c-9 -25 -11 -32 -11 -48 0 -5 -5 -10 -11 -10 -8 0 -9
4 0 13 6 8 8 16 5 20 -6 5 13 47 21 47 3 0 1 -10 -4 -22z m-20 -171 c-10 -9
-11 -8 -5 6 3 10 9 15 12 12 3 -3 0 -11 -7 -18z m774 -77 c3 -5 1 -10 -4 -10
-6 0 -11 5 -11 10 0 6 2 10 4 10 3 0 8 -4 11 -10z m-628 -76 c-3 -3 -12 -4
-19 -1 -8 3 -5 6 6 6 11 1 17 -2 13 -5z m-67 -41 c-19 -36 -14 -55 14 -49 6 2
8 1 4 -1 -15 -9 -8 -25 8 -19 13 5 14 3 6 -7 -6 -7 -7 -18 -2 -26 4 -8 6 -20
4 -26 -3 -7 2 -15 10 -18 9 -4 16 -13 16 -21 0 -7 7 -17 16 -20 27 -10 92 -7
100 6 4 7 3 8 -4 4 -7 -4 -12 -2 -12 3 0 15 12 14 35 -3 24 -16 84 -26 91 -14
3 4 16 8 30 8 13 0 24 5 24 11 0 8 4 9 13 0 8 -6 17 -7 22 -3 4 4 3 -2 -3 -14
-15 -29 -4 -69 14 -53 20 17 18 -5 -3 -39 -44 -68 -105 -85 -278 -80 -187 5
-216 29 -188 158 9 41 16 108 17 147 1 68 3 74 26 82 14 5 33 10 43 10 16 1
16 -2 -3 -36z m763 27 c-28 -11 -69 -75 -75 -117 -3 -26 -2 -30 8 -22 17 14
40 1 25 -14 -15 -15 -14 -27 3 -27 8 0 16 -7 20 -15 3 -8 13 -15 21 -15 9 0
13 5 10 10 -3 6 1 10 10 10 9 0 13 -5 10 -10 -9 -15 44 -32 76 -25 15 3 30 14
33 23 3 9 10 24 15 32 5 8 12 23 15 32 5 15 9 16 31 6 32 -14 31 -19 -2 -40
-19 -12 -23 -18 -12 -18 9 0 22 7 29 15 7 9 19 14 27 11 24 -10 13 21 -14 40
-53 35 -78 47 -100 46 -13 -1 -23 3 -23 8 0 28 95 2 145 -39 19 -15 19 -15 5
2 -7 10 -34 29 -59 42 -35 18 -41 24 -23 25 17 0 22 6 22 25 0 29 5 30 98 10
90 -19 150 -43 162 -66 14 -26 12 -89 -6 -177 -30 -144 -53 -162 -213 -162
-107 0 -187 13 -236 38 -35 18 -47 32 -75 89 -21 45 -27 69 -10 43 8 -13 10
-13 10 2 0 9 -3 24 -6 33 -6 13 -9 14 -16 3 -5 -8 -6 -2 -2 16 5 22 4 27 -6
21 -9 -5 -10 -2 -5 15 4 13 3 20 -2 17 -6 -4 -10 13 -11 37 -2 32 3 47 20 64
28 25 64 41 98 41 24 0 25 0 3 -9z m-590 -27 c-29 -9 -53 -20 -53 -25 0 -5 9
-4 19 2 11 5 28 10 38 10 11 -1 5 -7 -16 -15 -38 -17 -65 -19 -56 -5 3 6 -1 7
-9 4 -9 -3 -14 -10 -11 -14 6 -10 -21 -7 -31 3 -4 4 1 9 10 13 9 3 14 9 12 13
-3 4 3 7 12 8 9 1 35 6 57 11 65 16 84 12 28 -5z m-255 -53 c2 -60 -4 -70 -26
-48 -17 17 -15 59 4 86 8 12 16 22 17 22 1 0 3 -27 5 -60z m309 34 c-3 -3 -12
-4 -19 -1 -8 3 -5 6 6 6 11 1 17 -2 13 -5z m629 -26 c3 -4 -1 -5 -10 -4 -8 1
-18 5 -22 8 -3 4 1 5 10 4 8 -1 18 -5 22 -8z m-696 -81 c0 -5 -7 -4 -15 3 -8
7 -15 20 -15 29 1 13 3 13 15 -3 8 -11 15 -24 15 -29z m140 24 c0 -18 -27 -37
-38 -26 -3 3 0 5 6 5 7 0 12 9 12 20 0 11 5 20 10 20 6 0 10 -9 10 -19z m299
-20 c10 -14 33 -65 51 -113 18 -48 36 -85 40 -83 4 3 10 -2 13 -9 9 -24 52
-47 114 -61 68 -17 296 -20 324 -5 27 15 25 2 -16 -123 -19 -58 -35 -114 -35
-124 0 -10 -9 -24 -20 -31 -12 -7 -18 -17 -15 -22 3 -6 1 -10 -6 -10 -7 0 -9
-3 -6 -6 3 -4 0 -16 -8 -28 -8 -11 -15 -28 -15 -38 0 -9 -5 -20 -12 -24 -7 -5
-8 -2 -3 7 4 8 -1 5 -12 -6 -11 -11 -18 -24 -16 -30 6 -14 -36 35 -47 54 -5 9
-11 13 -15 10 -3 -4 1 -14 10 -23 18 -17 16 -19 -8 -10 -10 3 -14 14 -11 30 2
13 0 24 -6 24 -6 0 -22 12 -36 27 -13 14 -32 27 -42 28 -9 0 -23 4 -30 9 -16
9 -34 -2 -26 -16 4 -7 2 -8 -5 -4 -6 4 -9 11 -6 16 3 5 1 11 -4 14 -5 4 -12 2
-16 -4 -4 -6 -12 -5 -21 5 -9 8 -20 13 -25 10 -5 -4 -9 -2 -9 3 0 9 -47 27
-62 24 -5 -1 -8 2 -8 7 0 4 -12 7 -28 5 -15 -2 -32 0 -38 4 -12 8 -13 74 0 83
4 4 3 15 -3 25 -6 11 -11 16 -11 12 0 -4 -24 4 -52 17 -63 30 -76 30 -105 6
-24 -20 -31 -65 -13 -76 6 -4 8 -11 5 -16 -4 -5 2 -9 12 -9 11 0 28 -7 39 -15
18 -14 18 -14 -7 -15 -27 0 -79 -21 -79 -32 0 -4 -9 -5 -20 -3 -11 2 -22 0
-25 -5 -3 -5 -17 -7 -31 -4 -19 3 -24 1 -18 -8 5 -10 4 -10 -6 -1 -13 12 -43
6 -35 -7 3 -5 -5 -18 -17 -30 -21 -19 -23 -20 -29 -3 -5 15 -7 14 -14 -7 -4
-14 -16 -36 -26 -49 -17 -21 -19 -21 -25 -6 -7 17 13 38 28 29 10 -6 11 10 1
19 -3 4 -13 1 -21 -6 -9 -6 -13 -7 -10 -2 4 6 3 17 -3 25 -7 12 -9 12 -9 -3 0
-15 -2 -16 -14 -5 -8 7 -12 21 -10 32 2 10 1 16 -3 13 -9 -9 -28 15 -41 50 -6
20 -7 35 -1 38 5 4 9 12 9 18 0 7 -4 6 -10 -3 -8 -13 -10 -12 -10 3 0 9 -5 17
-10 17 -6 0 -9 3 -8 8 0 4 -4 18 -11 32 -11 23 -11 23 -7 2 2 -12 0 -20 -4
-17 -8 5 -33 82 -45 138 l-6 28 33 -17 c62 -32 300 -38 393 -9 16 5 21 2 21
-15 0 -12 -5 -19 -13 -16 -10 4 -10 1 0 -15 11 -18 14 -17 60 31 37 40 47 57
47 85 0 19 6 49 14 67 8 18 17 45 20 59 3 15 19 40 34 57 34 36 62 34 91 -7z
m216 -29 c-11 -11 -27 17 -20 35 6 16 8 16 16 -6 5 -13 7 -26 4 -29z m-455 32
c0 -8 -19 -13 -24 -6 -3 5 1 9 9 9 8 0 15 -2 15 -3z m-454 -36 c-3 -13 -6 -39
-7 -58 l-1 -35 -8 30 c-14 54 -11 85 6 85 12 0 15 -6 10 -22z m1254 -462 c0
-3 -4 -8 -10 -11 -5 -3 -10 -1 -10 4 0 6 5 11 10 11 6 0 10 -2 10 -4z m23
-111 c4 -8 1 -17 -5 -21 -7 -4 -8 -3 -4 4 4 7 2 12 -3 12 -6 0 -11 5 -11 10 0
15 17 12 23 -5z m-233 -104 c7 -15 7 -22 -2 -27 -7 -4 -10 -4 -6 1 4 4 3 16
-3 26 -5 11 -7 19 -5 19 3 0 10 -9 16 -19z m-250 -20 c0 -4 11 -6 25 -3 15 2
25 0 25 -7 0 -6 6 -11 13 -11 14 0 37 -33 42 -61 2 -11 0 -19 -4 -19 -5 0 -20
-18 -35 -40 -27 -41 -60 -62 -84 -53 -6 3 -15 23 -18 45 -9 52 -25 66 -85 74
-42 6 -47 8 -33 19 15 10 12 11 -14 7 -25 -3 -32 -1 -32 13 0 15 -1 15 -16 0
-20 -19 -25 -16 -18 12 4 14 14 21 32 21 37 0 45 -7 30 -26 -11 -14 -9 -14 8
1 13 11 32 16 52 13 18 -2 32 1 32 6 0 6 11 8 25 6 14 -3 28 -1 31 3 7 12 24
12 24 0z m-340 -86 c0 -9 -6 -12 -15 -9 -8 4 -12 10 -9 15 8 14 24 10 24 -6z
m-525 -5 c-3 -5 0 -10 7 -11 10 0 10 -2 0 -6 -6 -2 -10 -9 -6 -14 3 -5 -2 -9
-11 -9 -9 0 -14 3 -12 8 2 4 7 15 10 25 4 9 9 17 12 17 4 0 3 -4 0 -10z m1349
-95 c-4 -8 -11 -12 -16 -9 -6 4 -5 10 3 15 19 12 19 11 13 -6z m368 -47 c-15
-15 -16 -42 -1 -32 7 4 10 1 7 -7 -3 -8 -11 -13 -18 -11 -6 1 -10 -3 -7 -10 2
-8 19 -12 43 -11 l39 2 -35 -18 c-34 -18 -35 -18 -48 0 -18 27 0 99 26 99 3 0
1 -5 -6 -12z m-1757 -48 c3 -5 1 -10 -4 -10 -6 0 -11 5 -11 10 0 6 2 10 4 10
3 0 8 -4 11 -10z m1605 -24 c0 -20 -4 -23 -22 -18 -19 5 -20 7 -5 10 9 2 17
10 17 18 0 8 2 14 5 14 3 0 5 -11 5 -24z m-1800 4 c12 -8 9 -10 -13 -10 -16 0
-26 4 -22 10 8 12 16 12 35 0z m123 -6 c4 9 11 16 16 16 6 0 8 -7 5 -15 -8
-20 -45 -30 -55 -14 -12 20 1 32 15 13 12 -15 13 -15 19 0z m1793 -1 c18 -23
17 -33 -1 -33 -9 0 -12 6 -9 15 5 11 2 13 -10 9 -11 -4 -16 -1 -16 10 0 21 19
20 36 -1z m-1852 1 c9 -3 16 -12 16 -19 0 -8 12 -15 27 -17 18 -2 29 -10 32
-23 3 -20 3 -20 -18 -1 -19 17 -21 17 -21 2 0 -9 7 -19 15 -22 8 -4 15 -13 15
-21 0 -8 -4 -11 -10 -8 -5 3 -10 -1 -10 -9 0 -15 -12 -21 -33 -17 -4 1 -18 -5
-30 -14 -31 -21 -35 -19 -33 17 1 22 7 34 19 36 9 2 17 -1 17 -7 0 -6 -4 -11
-10 -11 -5 0 -10 -8 -10 -17 0 -15 2 -15 14 2 11 16 17 17 29 7 12 -10 16 -9
20 10 4 15 1 26 -9 31 -9 5 -13 16 -9 27 4 13 0 20 -15 25 -11 3 -20 13 -20
21 0 16 2 16 24 8z m1770 -9 c3 -8 1 -15 -4 -15 -6 0 -10 7 -10 15 0 8 2 15 4
15 2 0 6 -7 10 -15z m-1894 -5 c0 -5 -8 -10 -17 -10 -16 -1 -15 -3 4 -19 12
-10 19 -21 16 -25 -3 -3 2 -8 11 -12 19 -7 22 -48 4 -41 -7 2 -13 12 -13 22 0
10 -10 21 -23 26 -12 5 -22 15 -22 24 0 11 -6 14 -25 9 -15 -4 -25 -2 -25 5 0
6 3 11 8 12 22 2 56 10 61 14 8 9 21 5 21 -5z m2160 0 c0 -5 -7 -10 -15 -10
-8 0 -15 -5 -15 -11 0 -6 -9 -8 -22 -4 -18 5 -20 4 -8 -4 13 -9 13 -11 -2 -11
-20 0 -22 8 -9 29 5 7 13 11 19 7 6 -3 13 -2 17 4 8 13 35 13 35 0z m94 2 c2
-4 -10 -8 -29 -8 -19 0 -31 4 -29 8 3 4 16 8 29 8 13 0 26 -4 29 -8z m-2216
-24 c-6 -18 -28 -21 -28 -4 0 9 7 16 16 16 9 0 14 -5 12 -12z m1688 -3 c-6
-18 5 -20 21 -4 17 17 49 3 34 -15 -6 -7 -8 -16 -4 -20 4 -4 0 -4 -10 0 -9 3
-17 10 -17 15 0 4 -6 6 -14 3 -16 -6 -30 11 -21 26 10 15 18 12 11 -5z m514 5
c0 -5 -4 -10 -10 -10 -5 0 -10 5 -10 10 0 6 5 10 10 10 6 0 10 -4 10 -10z
m-2426 -25 c-7 -17 -20 -20 -28 -6 -4 5 0 12 6 14 23 9 28 7 22 -8z m420 0
c-6 -16 -24 -21 -24 -7 0 11 11 22 21 22 5 0 6 -7 3 -15z m1456 5 c0 -5 -2
-10 -4 -10 -3 0 -8 5 -11 10 -3 6 -1 10 4 10 6 0 11 -4 11 -10z m128 -31 c-5
-3 1 -9 13 -12 13 -3 28 -3 34 1 6 4 2 -1 -10 -12 -11 -10 -19 -24 -17 -30 1
-6 -4 -3 -11 6 -8 10 -16 16 -19 13 -2 -2 -4 14 -5 36 -1 35 1 38 12 22 9 -11
10 -20 3 -24z m99 35 c-3 -3 -12 -4 -19 -1 -8 3 -5 6 6 6 11 1 17 -2 13 -5z
m36 -1 c9 -14 -19 -32 -34 -22 -11 7 -10 9 4 9 10 0 15 5 12 10 -3 6 -2 10 4
10 5 0 12 -3 14 -7z m101 -1 c10 -5 -14 -22 -32 -22 -8 0 -10 5 -6 12 5 8 2 9
-9 5 -9 -3 -19 -2 -22 4 -6 9 51 10 69 1z m96 -7 c-7 -8 -16 -12 -21 -9 -13 8
-1 24 18 24 13 0 13 -3 3 -15z m-2054 -8 c4 -4 -3 -7 -15 -7 -12 0 -19 -4 -16
-10 3 -5 0 -10 -8 -10 -16 0 -40 24 -31 32 7 8 61 4 70 -5z m2177 -5 c-5 -11
-7 -11 -14 -1 -5 9 -10 5 -14 -14 -4 -15 -11 -27 -16 -27 -13 0 -11 14 3 28 7
7 8 12 3 12 -6 0 -4 4 3 8 20 14 41 10 35 -6z m-2333 -6 c0 -16 -18 -31 -27
-22 -8 8 5 36 17 36 5 0 10 -6 10 -14z m1920 5 c0 -6 -4 -13 -10 -16 -5 -3
-10 1 -10 9 0 9 5 16 10 16 6 0 10 -4 10 -9z m360 1 c0 -5 -7 -9 -15 -9 -8 0
-15 4 -15 9 0 4 7 8 15 8 8 0 15 -4 15 -8z m-2322 -25 c2 -10 -3 -17 -12 -17
-10 0 -16 9 -16 21 0 24 23 21 28 -4z m2059 -5 c0 -10 -6 -19 -13 -19 -9 0 -9
5 -1 19 7 10 13 18 14 18 1 0 1 -8 0 -18z m93 11 c-8 -4 -20 -13 -27 -22 -7
-9 -13 -11 -13 -5 0 15 22 34 40 33 13 0 13 -1 0 -6z m-2180 -39 c0 -8 6 -14
14 -14 25 0 46 12 46 26 0 8 5 14 10 14 11 0 13 -11 4 -34 -3 -9 -10 -14 -14
-11 -5 3 -18 -4 -28 -16 -13 -13 -22 -17 -27 -10 -3 6 -10 9 -15 6 -4 -3 -10
1 -13 9 -4 9 -14 12 -25 9 -26 -6 -38 14 -13 22 11 3 22 13 25 22 5 12 9 13
21 3 8 -7 15 -19 15 -26z m2277 24 c-2 -7 -10 -12 -16 -10 -7 1 -10 -2 -6 -8
3 -6 11 -7 17 -4 8 5 9 -3 4 -27 -8 -42 -23 -58 -32 -35 -4 10 -2 21 4 25 7 4
8 12 2 21 -17 26 -11 50 11 50 12 0 19 -5 16 -12z m-247 -8 c0 -5 -5 -10 -11
-10 -5 0 -7 5 -4 10 3 6 8 10 11 10 2 0 4 -4 4 -10z m556 -5 c-3 -8 -1 -15 5
-15 11 0 39 -25 39 -35 0 -3 -9 -1 -19 5 -14 7 -22 7 -27 -2 -4 -6 -3 -8 3 -5
6 4 14 0 17 -9 9 -23 0 -29 -19 -14 -13 10 -15 9 -15 -10 0 -12 11 -31 25 -42
14 -11 25 -28 25 -39 0 -14 -7 -19 -25 -19 -31 0 -33 18 -2 30 22 9 22 9 -3
11 -14 1 -28 1 -32 0 -4 0 -5 6 -2 14 5 11 -1 15 -22 15 l-28 0 32 29 c22 21
32 39 32 59 0 26 7 42 18 42 2 0 2 -7 -2 -15z m-686 -20 c-7 -9 -22 -15 -32
-13 -26 4 -18 23 10 23 12 -1 22 4 22 9 0 5 3 6 6 3 4 -4 1 -14 -6 -22z m219
-2 c-6 -11 -24 -25 -40 -32 -16 -7 -29 -18 -29 -24 0 -8 4 -7 12 1 18 18 46
14 53 -8 4 -11 11 -18 16 -14 5 3 7 9 4 13 -2 5 8 6 23 3 l27 -5 -34 -14 c-40
-17 -63 -11 -54 14 6 16 4 16 -16 -2 -19 -16 -24 -17 -31 -5 -6 8 -10 19 -10
23 0 5 -5 5 -12 1 -7 -4 -8 -3 -4 5 4 6 11 9 16 6 4 -3 13 2 20 10 7 8 19 15
28 15 8 0 12 3 9 7 -4 3 1 12 11 19 22 16 27 11 11 -13z m-1654 7 c3 -6 -1 -7
-9 -4 -18 7 -21 14 -7 14 6 0 13 -4 16 -10z m1760 1 c6 -11 -23 -43 -35 -36
-4 2 -10 14 -13 25 -4 16 0 20 18 20 13 0 26 -4 30 -9z m283 -8 c5 -18 -23
-16 -39 3 -11 14 -10 15 11 12 13 -1 25 -9 28 -15z m-2648 -8 c14 -17 35 -20
24 -4 -4 7 -2 9 7 5 8 -3 22 -9 32 -12 9 -4 17 -10 17 -15 0 -5 6 -9 13 -9 7
0 22 -6 33 -14 18 -14 18 -15 -8 -13 -14 1 -37 11 -51 23 -17 15 -33 20 -57
16 -23 -3 -31 -1 -26 7 5 7 -3 11 -21 11 -22 0 -25 2 -13 10 21 14 36 12 50
-5z m2470 6 c0 -5 -6 -11 -12 -14 -10 -3 -10 -7 -1 -18 8 -9 9 -20 3 -29 -8
-13 -11 -13 -25 1 -12 12 -14 21 -6 42 10 25 41 39 41 18z m225 -18 c-9 -38
-36 -55 -50 -32 -4 6 0 9 11 7 11 -2 19 3 20 12 3 35 5 40 15 40 7 0 9 -10 4
-27z m-2187 -33 c-14 -22 -43 -27 -54 -8 -4 7 -3 8 4 4 7 -4 22 0 34 8 20 14
18 21 -4 17 -4 0 -5 6 -2 14 5 13 8 13 20 0 12 -12 12 -18 2 -35z m1776 25
c-4 -8 -11 -12 -16 -9 -6 4 -5 10 3 15 19 12 19 11 13 -6z m-2009 -5 c3 -5 1
-10 -4 -10 -6 0 -11 5 -11 10 0 6 2 10 4 10 3 0 8 -4 11 -10z m2316 -24 c-8
-13 -26 -26 -42 -30 -16 -3 -29 -11 -29 -17 0 -8 11 -9 31 -5 28 5 30 4 19 -9
-7 -9 -19 -14 -27 -11 -7 3 -13 -1 -13 -9 0 -8 -5 -15 -11 -15 -7 0 -9 9 -6
21 3 13 1 19 -6 16 -7 -2 -14 -12 -15 -23 -4 -21 -29 -44 -48 -44 -13 0 -13
17 -1 38 5 8 2 12 -8 12 -9 0 -15 6 -12 13 2 7 19 11 42 10 30 -2 36 0 31 13
-3 8 -2 12 4 9 6 -3 10 3 10 14 0 25 17 36 34 22 10 -8 18 -6 31 9 23 26 32
17 16 -14z m-2274 2 c-3 -8 -6 -5 -6 6 -1 11 2 17 5 13 3 -3 4 -12 1 -19z
m1723 3 c0 -17 -27 -37 -37 -27 -7 7 17 46 27 46 6 0 10 -9 10 -19z m110 -2
c0 -6 -4 -7 -10 -4 -5 3 -10 11 -10 16 0 6 5 7 10 4 6 -3 10 -11 10 -16z
m-1586 -21 c-3 -4 -11 -8 -19 -8 -7 0 -15 -7 -19 -15 -3 -8 -13 -15 -23 -14
-17 0 -17 1 0 8 10 4 18 10 18 14 -4 33 -1 39 14 27 12 -10 15 -9 15 6 0 16 2
16 9 4 6 -8 7 -18 5 -22z m-346 10 c8 -10 4 -13 -14 -14 -20 -2 -23 1 -13 12
14 17 14 17 27 2z m-368 -7 c0 -5 -7 -14 -15 -21 -16 -14 -18 -10 -9 14 6 17
24 22 24 7z m80 -1 c-8 -5 -19 -10 -25 -10 -5 0 -3 5 5 10 8 5 20 10 25 10 6
0 3 -5 -5 -10z m105 0 c-4 -6 7 -13 24 -16 36 -7 41 -24 9 -25 -21 0 -21 -1
-4 -8 14 -5 16 -10 7 -15 -6 -4 -18 -3 -26 4 -11 9 -12 7 -8 -8 2 -11 0 -23
-6 -26 -6 -4 -11 -1 -11 7 0 10 -8 13 -26 9 -19 -3 -25 -1 -20 7 4 6 12 8 18
5 7 -4 8 -2 4 4 -4 7 3 14 19 18 14 3 25 10 25 15 0 6 -10 4 -22 -2 -12 -7
-31 -13 -43 -13 -11 -1 -19 -6 -18 -12 1 -5 -9 -14 -23 -21 -16 -7 -24 -8 -24
-1 0 6 -6 5 -15 -2 -11 -9 -15 -9 -15 -1 0 6 6 14 14 17 8 3 12 12 9 20 -6 17
22 19 33 3 4 -8 9 -8 18 1 8 8 7 13 -2 19 -20 12 13 23 45 15 18 -5 24 -3 19
5 -4 6 -1 11 9 11 9 0 13 -5 10 -10z m322 -2 c12 -20 13 -41 1 -55 -17 -21
-23 -15 -25 27 -3 39 8 52 24 28z m51 -43 c-1 -25 -5 -45 -11 -45 -5 0 -7 14
-5 30 3 17 1 30 -3 30 -4 0 -5 9 -2 20 9 34 21 12 21 -35z m1971 24 c-7 -4 -5
-9 5 -12 9 -4 16 -12 16 -18 0 -7 -10 -4 -22 8 -13 11 -29 18 -35 16 -16 -6
-17 4 -1 21 9 10 17 10 30 2 11 -6 13 -13 7 -17z m-322 -13 c-13 -14 -16 -14
-29 1 -11 15 -11 16 5 10 12 -4 17 -1 17 10 0 13 3 14 11 6 9 -9 8 -16 -4 -27z
m53 24 c0 -5 6 -7 13 -4 8 3 13 -5 15 -19 1 -17 -6 -27 -25 -36 -34 -16 -58 3
-30 23 10 8 15 20 11 30 -3 9 -1 16 5 16 6 0 11 -4 11 -10z m-1854 -22 c3 -5
12 -4 20 3 11 9 14 9 14 -1 0 -9 4 -9 17 1 14 12 16 12 11 -1 -5 -16 -68 -26
-68 -10 0 6 -6 10 -12 10 -7 -1 -2 -10 12 -22 21 -18 22 -20 5 -16 -11 3 -27
9 -37 13 -11 4 -18 1 -21 -12 -4 -17 -4 -17 -12 1 -5 12 -3 21 6 27 8 5 10 9
6 9 -5 0 -6 4 -3 9 7 10 54 2 62 -11z m-76 2 c0 -13 -11 -13 -30 0 -12 8 -11
10 8 10 12 0 22 -4 22 -10z m366 -17 c-10 -10 -19 5 -10 18 6 11 8 11 12 0 2
-7 1 -15 -2 -18z m2109 6 c-4 -6 -14 -8 -22 -5 -8 3 -12 2 -9 -2 3 -4 -4 -13
-15 -20 -22 -14 -24 -10 -7 18 7 11 23 20 36 20 14 0 21 -4 17 -11z m-380 -9
c-3 -5 -11 -10 -16 -10 -6 0 -7 5 -4 10 3 6 11 10 16 10 6 0 7 -4 4 -10z
m-2495 -15 c0 -10 -10 -15 -27 -15 -27 1 -27 1 -9 15 25 19 36 19 36 0z m515
5 c3 -5 1 -10 -4 -10 -6 0 -11 5 -11 10 0 6 2 10 4 10 3 0 8 -4 11 -10z m1934
-9 c8 -15 5 -24 -17 -46 -23 -24 -27 -25 -30 -10 -2 10 2 22 10 26 10 8 9 12
-6 20 -15 9 -16 13 -5 20 22 14 37 11 48 -10z m-2359 2 c0 -5 -12 -13 -26 -20
-26 -12 -26 -12 -9 7 18 20 35 26 35 13z m624 -32 c20 2 56 -13 56 -23 0 -6
-6 -8 -14 -5 -7 3 -19 0 -25 -6 -6 -6 -14 -7 -18 -3 -4 4 -1 11 7 16 11 7 5 9
-20 7 -19 -1 -35 3 -35 8 0 6 6 9 13 9 9 -1 10 2 2 10 -5 7 -7 16 -3 20 4 4
12 -2 17 -13 5 -12 14 -21 20 -20z m93 24 c-15 -15 -67 -28 -67 -17 0 17 23
31 51 30 21 -1 25 -4 16 -13z m1763 -5 c0 -27 -28 -37 -48 -16 -15 15 -14 16
11 16 15 0 27 5 27 10 0 6 2 10 5 10 3 0 5 -9 5 -20z m315 10 c3 -5 -3 -10
-14 -10 -12 0 -21 5 -21 10 0 6 6 10 14 10 8 0 18 -4 21 -10z m-2848 -6 c-3
-3 -12 -4 -19 -1 -8 3 -5 6 6 6 11 1 17 -2 13 -5z m328 -16 c-4 -34 -5 -35
-16 -14 -9 14 -8 20 2 27 8 5 15 9 15 9 1 0 0 -10 -1 -22z m490 -7 c-6 -5 -25
10 -25 20 0 5 6 4 14 -3 8 -7 12 -15 11 -17z m-399 -9 c-2 -2 -19 2 -37 7 -28
9 -29 10 -6 7 15 -2 27 2 27 8 0 6 4 4 10 -4 5 -8 7 -16 6 -18z m69 -2 c18
-34 19 -50 4 -50 -6 0 -9 6 -6 14 3 8 -3 22 -14 32 -21 19 -25 34 -9 34 5 0
16 -13 25 -30z m1819 19 c-4 -8 1 -9 17 -4 13 4 21 4 17 0 -4 -5 -3 -14 4 -22
16 -20 1 -29 -19 -11 -23 20 -78 34 -67 17 4 -8 3 -9 -5 -5 -15 10 -3 29 15
22 7 -3 16 -1 19 4 4 6 11 10 16 10 6 0 7 -5 3 -11z m146 -4 c0 -8 -4 -15 -10
-15 -5 0 -10 7 -10 15 0 8 5 15 10 15 6 0 10 -7 10 -15z m427 -32 c-3 -10 -5
-2 -5 17 0 19 2 27 5 18 2 -10 2 -26 0 -35z m-3022 27 c-3 -5 -1 -10 6 -10 10
0 10 -3 2 -11 -6 -6 -21 -8 -33 -4 -17 5 -19 10 -9 21 13 16 44 20 34 4z m105
0 c0 -5 -5 -10 -11 -10 -5 0 -7 5 -4 10 3 6 8 10 11 10 2 0 4 -4 4 -10z m290
-16 c0 -8 -4 -12 -10 -9 -5 3 -10 13 -10 21 0 8 5 12 10 9 6 -3 10 -13 10 -21z
m2338 7 c3 -8 -1 -12 -9 -9 -7 2 -15 10 -17 17 -3 8 1 12 9 9 7 -2 15 -10 17
-17z m177 -8 c-4 -13 -3 -14 9 -3 9 6 21 10 28 8 8 -3 5 -9 -10 -17 -27 -14
-42 -7 -42 20 0 12 4 17 11 14 6 -4 8 -14 4 -22z m-2216 5 c4 8 11 5 19 -8 7
-12 8 -20 2 -20 -5 0 -10 4 -10 10 0 5 -6 7 -14 4 -18 -7 -9 -34 10 -34 8 0
14 -4 14 -10 0 -5 -5 -10 -11 -10 -5 0 -7 -4 -4 -10 3 -6 -1 -7 -9 -4 -9 3
-16 16 -17 28 0 20 -1 20 -9 1 -5 -15 -7 -9 -6 22 1 33 4 39 14 30 10 -8 15
-8 21 1z m-581 -21 c6 3 12 -1 12 -7 0 -8 -8 -10 -22 -6 -13 3 -34 6 -48 6
-24 1 -24 1 -6 15 17 13 22 13 35 1 9 -7 22 -11 29 -9z m172 -7 c0 -10 8 -21
18 -25 13 -5 14 -4 5 6 -13 13 -1 49 16 49 18 0 18 -47 0 -58 -14 -9 -16 -20
-12 -53 5 -35 3 -41 -9 -37 -8 4 -20 -2 -26 -13 -7 -11 -23 -19 -38 -19 -22 0
-24 2 -14 14 6 8 21 16 33 18 14 2 23 11 23 23 2 32 8 49 19 57 6 4 1 8 -10 8
-12 0 -27 -6 -34 -12 -11 -11 -13 -10 -8 3 4 12 1 15 -12 12 -11 -3 -17 2 -18
16 -2 22 11 28 22 11 12 -20 33 -11 27 12 -3 14 -2 19 6 14 7 -4 12 -15 12
-26z m210 14 c0 -9 -5 -12 -12 -8 -7 5 -8 3 -4 -5 5 -7 14 -10 22 -7 7 3 16 0
20 -5 4 -7 -6 -10 -27 -7 -28 2 -34 -1 -36 -17 -2 -11 0 -14 3 -7 7 15 54 16
54 1 0 -6 6 -9 13 -6 8 3 20 1 28 -4 11 -7 10 -9 -6 -10 -11 -1 -27 0 -35 1
-12 2 -11 -3 4 -19 19 -21 19 -21 -2 -21 -11 0 -28 7 -36 16 -15 14 -16 13
-16 -10 0 -14 -5 -26 -11 -26 -8 0 -9 11 -5 31 5 29 4 31 -17 26 -21 -6 -21
-6 -3 8 18 14 18 15 2 15 -12 0 -16 5 -12 16 3 9 6 20 6 26 0 6 9 8 19 5 12
-3 22 1 25 9 7 19 26 18 26 -2z m2363 7 c4 0 7 -8 7 -16 0 -8 9 -15 20 -15 22
0 27 -15 8 -26 -7 -5 -8 -2 -3 7 6 11 5 12 -6 2 -18 -18 -65 -18 -51 0 8 10 6
16 -9 25 -35 22 -21 33 34 23z m-2663 -15 c0 -8 -8 -17 -17 -21 -17 -7 -16 -8
2 -15 19 -7 18 -7 -4 -20 -21 -11 -26 -10 -37 5 -11 15 -9 21 14 41 31 27 42
30 42 10z m2440 4 c0 -5 -4 -10 -10 -10 -5 0 -10 5 -10 10 0 6 5 10 10 10 6 0
10 -4 10 -10z m41 1 c0 -3 2 -16 5 -28 4 -25 -5 -30 -24 -11 -9 9 -12 7 -12
-9 0 -12 -4 -25 -10 -28 -5 -3 -10 3 -10 14 0 16 -6 21 -24 21 -14 0 -28 5
-31 10 -10 16 25 25 46 12 14 -9 19 -8 24 7 5 16 34 26 36 12z m351 -20 c11 6
19 5 23 -1 3 -5 -3 -10 -14 -10 -11 0 -19 -6 -17 -12 1 -7 1 -10 -1 -5 -3 4
-17 7 -31 7 -15 0 -38 3 -51 7 l-23 6 28 12 c23 10 33 10 50 0 13 -8 26 -10
36 -4z m-2462 -6 c0 -8 -2 -15 -4 -15 -2 0 -6 7 -10 15 -3 8 -1 15 4 15 6 0
10 -7 10 -15z m207 0 c-4 -8 -2 -17 3 -20 6 -4 10 -12 10 -18 -1 -16 -30 23
-30 40 0 7 5 13 11 13 6 0 9 -7 6 -15z m123 5 c0 -5 -5 -10 -11 -10 -5 0 -7 5
-4 10 3 6 8 10 11 10 2 0 4 -4 4 -10z m-800 -7 c-1 -10 -36 -53 -43 -53 -6 0
-3 18 8 43 7 16 35 25 35 10z m710 -3 c0 -5 -5 -10 -11 -10 -5 0 -7 5 -4 10 3
6 8 10 11 10 2 0 4 -4 4 -10z m1685 0 c3 -5 1 -10 -4 -10 -6 0 -11 5 -11 10 0
6 2 10 4 10 3 0 8 -4 11 -10z m262 -2 c3 6 9 12 14 12 14 0 10 -22 -7 -34 -9
-7 -12 -18 -8 -29 6 -17 8 -17 25 -1 15 14 19 14 23 3 7 -22 4 -49 -6 -49 -4
0 -8 -8 -8 -17 0 -13 -3 -15 -8 -5 -6 9 -12 5 -22 -13 -15 -27 -30 -33 -30
-11 0 9 -7 12 -21 9 -16 -4 -20 -2 -17 8 3 8 13 13 22 11 9 -2 26 4 38 13 16
10 18 15 7 15 -25 0 -40 21 -27 37 8 10 8 17 0 25 -7 7 -12 18 -12 26 0 12 2
12 17 1 13 -11 17 -11 20 -1z m363 -8 c0 -5 -7 -7 -15 -4 -8 4 -12 10 -9 15 6
11 24 2 24 -11z m90 -21 c0 -11 -4 -17 -10 -14 -5 3 -10 15 -10 26 0 11 5 17
10 14 6 -3 10 -15 10 -26z m-2830 1 c0 -11 -7 -20 -15 -20 -15 0 -21 21 -8 33
12 13 23 7 23 -13z m527 6 c-3 -7 -1 -18 5 -24 7 -7 6 -16 -1 -30 -9 -16 -7
-24 5 -36 8 -9 11 -16 5 -16 -5 0 -13 5 -16 10 -4 6 -11 7 -17 4 -7 -4 -8 -2
-4 4 5 8 -1 12 -16 12 -20 1 -21 2 -5 11 9 5 23 7 30 3 6 -4 3 2 -7 14 -17 19
-17 22 -3 22 10 0 17 -5 17 -12 0 -6 3 -8 7 -4 4 4 -3 16 -17 28 -16 13 -19
18 -7 14 9 -3 17 -1 17 4 0 6 3 10 6 10 3 0 4 -6 1 -14z m2051 -9 c2 -12 -3
-17 -17 -17 -15 0 -21 6 -21 21 0 25 33 22 38 -4z m126 -2 c3 -8 1 -15 -4 -15
-6 0 -10 7 -10 15 0 8 2 15 4 15 2 0 6 -7 10 -15z m-3095 -21 c-6 -7 -15 -11
-21 -8 -5 3 -4 12 3 20 6 7 15 11 21 8 5 -3 4 -12 -3 -20z m39 9 c-3 -19 -26
-42 -42 -43 -5 0 -2 8 7 18 10 10 17 24 17 30 0 7 5 12 10 12 6 0 10 -8 8 -17z
m92 2 c14 -16 6 -35 -16 -35 -8 0 -14 10 -14 25 0 28 12 32 30 10z m148 -11
c-14 -15 -32 -24 -39 -22 -16 5 28 48 50 48 11 0 8 -7 -11 -26z m392 11 c0 -8
-4 -15 -9 -15 -13 0 -22 16 -14 24 11 11 23 6 23 -9z m187 -5 c-3 -11 -1 -18
4 -14 5 3 9 0 9 -5 0 -6 -12 -11 -27 -11 -22 0 -25 2 -13 10 12 8 10 10 -10
11 -24 2 -24 2 -2 6 12 2 22 9 22 14 0 5 5 9 11 9 6 0 9 -9 6 -20z m1623 14
c0 -8 -19 -13 -24 -6 -3 5 1 9 9 9 8 0 15 -2 15 -3z m76 -29 c-5 -18 -3 -23 8
-19 19 7 32 -16 15 -27 -22 -14 -52 -11 -42 4 7 12 9 17 11 50 1 9 5 17 8 17
3 0 3 -11 0 -25z m-1959 0 c4 -4 2 -5 -4 -1 -7 4 -13 2 -13 -4 0 -6 -4 -8 -10
-5 -5 3 -10 10 -10 15 0 10 27 7 37 -5z m165 -3 c11 -13 9 -14 -15 -8 -19 4
-26 3 -22 -4 3 -5 1 -10 -4 -10 -6 0 -11 2 -11 4 0 2 -3 11 -6 19 -7 20 42 19
58 -1z m1678 -10 c0 -15 -2 -15 -10 -2 -13 20 -13 33 0 25 6 -3 10 -14 10 -23z
m630 18 c0 -5 -8 -10 -17 -10 -15 0 -16 2 -3 10 19 12 20 12 20 0z m-180 -14
c0 -8 -8 -17 -17 -21 -17 -6 -17 -7 0 -16 23 -13 13 -29 -19 -29 -17 0 -24 5
-24 20 0 11 5 20 12 20 6 0 8 3 5 7 -9 9 12 33 29 33 8 0 14 -6 14 -14z m270
-6 c0 -11 -4 -20 -9 -20 -5 0 -7 9 -4 20 3 11 7 20 9 20 2 0 4 -9 4 -20z
m-2980 1 c0 -11 -39 -25 -47 -18 -3 3 -2 10 2 16 8 13 45 15 45 2z m2282 -13
c-7 -7 -12 -8 -12 -2 0 14 12 26 19 19 2 -3 -1 -11 -7 -17z m183 11 c12 -19
-5 -23 -22 -6 -16 16 -16 17 -1 17 9 0 20 -5 23 -11z m-2262 -42 c-4 -6 -10
-2 -14 9 -12 31 -9 40 6 20 8 -10 11 -24 8 -29z m407 18 c0 -8 -8 -15 -17 -14
-11 0 -13 3 -5 6 6 2 10 9 6 14 -3 5 0 9 5 9 6 0 11 -7 11 -15z m1900 5 c0 -5
-4 -10 -10 -10 -5 0 -10 -6 -10 -14 0 -9 -7 -12 -20 -9 -11 3 -20 10 -20 15 0
6 6 8 14 5 8 -3 17 1 20 9 6 16 26 19 26 4z m434 -35 c-1 -23 -8 -41 -17 -47
-10 -5 -14 -15 -10 -26 6 -16 5 -15 -11 1 -18 17 -18 19 0 38 17 19 17 20 -2
13 -10 -4 -16 -4 -12 1 4 4 0 14 -8 22 -17 18 -8 39 11 23 9 -8 14 -6 19 6 11
29 31 8 30 -31z m-3019 14 c4 -13 1 -27 -10 -39 -9 -10 -14 -24 -10 -30 10
-16 -2 -57 -19 -63 -8 -3 -24 5 -37 19 -24 26 -10 34 15 8 9 -8 16 -13 16 -11
0 3 3 14 6 24 5 15 4 15 -5 3 -6 -8 -11 -10 -11 -4 0 5 7 19 15 30 9 12 12 31
9 52 -5 25 -3 32 9 32 9 0 19 -9 22 -21z m94 12 c17 -11 6 -31 -17 -32 -11 0
-12 -3 -4 -6 13 -5 17 -33 4 -33 -4 0 -13 5 -20 12 -8 8 -12 8 -12 1 0 -6 7
-13 15 -17 18 -6 20 -32 4 -42 -14 -8 -29 14 -29 44 0 13 -4 20 -10 17 -5 -3
-10 2 -10 12 0 10 12 26 28 35 32 20 33 20 51 9z m324 -13 c-19 -22 -43 -61
-43 -71 0 -3 9 -3 20 0 14 4 20 0 20 -12 0 -12 -6 -16 -20 -12 -15 4 -20 0
-21 -16 0 -12 -3 -16 -6 -9 -2 6 -16 12 -29 12 -32 0 -31 18 1 26 27 7 34 24
10 24 -10 0 -15 10 -15 26 0 25 1 26 24 11 23 -15 24 -15 30 14 4 21 11 29 27
29 l22 0 -20 -22z m-563 2 c0 -5 -4 -10 -10 -10 -5 0 -10 5 -10 10 0 6 5 10
10 10 6 0 10 -4 10 -10z m690 -6 c0 -8 -4 -12 -10 -9 -5 3 -10 10 -10 16 0 5
5 9 10 9 6 0 10 -7 10 -16z m2300 -5 c0 -5 -7 -9 -15 -9 -15 0 -20 12 -9 23 8
8 24 -1 24 -14z m-2630 -14 c0 -18 -4 -23 -15 -19 -8 4 -15 15 -15 25 0 10 7
19 15 19 9 0 15 -9 15 -25z m510 15 c0 -5 -2 -10 -4 -10 -3 0 -8 5 -11 10 -3
6 -1 10 4 10 6 0 11 -4 11 -10z m2139 -30 c-25 -22 -35 -25 -44 -10 -3 6 2 10
12 10 10 0 25 10 32 23 10 15 16 18 19 9 2 -7 -6 -22 -19 -32z m-2609 5 c6
-15 17 -25 30 -25 11 0 20 -4 20 -10 0 -5 -9 -10 -20 -10 -11 0 -20 5 -20 11
0 5 -4 7 -10 4 -5 -3 -10 -3 -10 2 0 4 -3 18 -6 31 -8 30 4 28 16 -3z m448 7
c2 -8 -3 -10 -15 -5 -16 6 -17 5 -3 -12 14 -17 14 -18 -10 -5 -15 8 -20 15
-12 18 6 2 10 7 7 12 -3 5 3 7 12 6 9 -2 19 -8 21 -14z m57 -3 c-5 -13 -2 -25
6 -31 11 -7 9 -8 -4 -4 -10 3 -28 6 -39 6 -11 0 -18 5 -15 13 2 6 11 11 20 11
9 -1 16 1 15 5 -1 14 3 21 13 21 6 0 8 -9 4 -21z m110 12 c3 -5 1 -12 -5 -16
-5 -3 -10 1 -10 9 0 18 6 21 15 7z m2065 -6 c5 3 12 0 15 -6 5 -7 1 -10 -10
-7 -10 1 -20 9 -21 16 -1 7 0 8 3 2 2 -5 9 -8 13 -5z m-2630 -5 c0 -5 -9 -10
-20 -10 -11 0 -20 5 -20 10 0 6 9 10 20 10 11 0 20 -4 20 -10z m193 -30 c3
-11 2 -18 -3 -15 -4 3 -10 14 -13 25 -3 11 -2 18 3 15 4 -3 10 -14 13 -25z
m-333 11 c0 -5 -7 -11 -15 -15 -15 -5 -20 5 -8 17 9 10 23 9 23 -2z m434 -51
c-3 -2 -9 2 -14 10 -7 10 -10 11 -10 3 0 -7 -7 -13 -15 -13 -8 0 -15 7 -15 15
0 8 7 15 15 15 8 0 14 3 14 8 -4 24 5 23 16 -3 7 -16 11 -32 9 -35z m251 51
c3 -5 1 -12 -5 -16 -5 -3 -10 1 -10 9 0 18 6 21 15 7z m-723 -43 c-9 -9 -12
-7 -12 12 0 19 3 21 12 12 9 -9 9 -15 0 -24z m2363 11 c4 -11 4 -31 1 -44 -3
-13 -2 -27 4 -30 6 -4 5 -13 -3 -25 -17 -28 -30 -25 -23 6 7 25 6 26 -11 9
-24 -25 -30 0 -7 28 10 12 15 19 10 15 -12 -10 -48 11 -40 23 3 6 12 8 19 5 7
-2 15 4 18 15 7 25 24 24 32 -2z m255 -9 c0 -13 -31 -13 -50 0 -13 9 -13 11
-1 19 16 10 51 -3 51 -19z m-2570 -1 c0 -24 -23 -21 -28 4 -2 10 3 17 12 17
10 0 16 -9 16 -21z m460 -8 c6 8 9 -10 8 -48 0 -36 -5 -60 -10 -57 -5 3 -9 18
-8 32 4 50 2 56 -15 42 -9 -7 -19 -10 -23 -6 -4 4 1 13 11 20 9 7 18 22 18 32
1 13 3 12 6 -5 4 -18 7 -21 13 -10z m1903 -5 c7 -19 -18 -42 -28 -26 -8 13 1
40 14 40 5 0 11 -6 14 -14z m91 -8 c9 -12 16 -17 16 -10 0 6 5 12 10 12 13 0
13 -37 -1 -42 -7 -2 -7 -17 -1 -45 9 -40 9 -41 -10 -30 -23 15 -35 56 -19 66
8 5 4 16 -14 35 -29 31 -30 36 -11 36 8 0 22 -10 30 -22z m-2134 -31 c0 -5 -4
-5 -10 -2 -5 3 -10 14 -10 23 0 15 2 15 10 2 5 -8 10 -19 10 -23z m212 14 c-2
-8 3 -11 12 -8 12 5 13 1 4 -24 -10 -30 -33 -47 -45 -35 -3 3 -1 17 5 31 10
21 9 25 -3 25 -8 0 -15 7 -15 16 0 10 7 14 23 12 12 -2 21 -9 19 -17z m2105
-20 c-1 -9 -6 -22 -11 -30 -6 -9 -5 -12 5 -9 8 3 16 15 17 29 2 13 8 29 14 34
7 7 9 1 4 -18 -5 -20 -2 -29 9 -33 25 -10 17 -27 -9 -20 -14 3 -27 2 -30 -3
-7 -12 20 -22 38 -15 9 4 20 -6 31 -25 14 -28 14 -31 0 -31 -9 0 -26 11 -39
25 -13 14 -26 25 -29 25 -3 0 -17 11 -31 25 -14 14 -21 25 -17 25 5 0 11 14
15 31 5 26 8 29 21 19 8 -7 13 -19 12 -29z m98 22 c-5 -10 -8 -26 -9 -36 0
-11 -6 -15 -14 -12 -7 3 -20 5 -29 5 -10 0 -6 9 14 30 31 33 49 39 38 13z
m-2483 -15 c-7 -7 -12 -8 -12 -2 0 6 3 14 7 17 3 4 9 5 12 2 2 -3 -1 -11 -7
-17z m370 0 c-6 -6 -16 -7 -22 -3 -9 6 -9 9 1 16 17 10 34 0 21 -13z m-642 -4
c0 -10 6 -14 15 -10 19 7 51 -24 35 -34 -15 -9 -50 -1 -50 11 0 19 -18 7 -24
-16 -4 -16 -11 -22 -21 -19 -8 4 -15 2 -15 -4 0 -5 11 -13 25 -16 43 -11 26
-33 -22 -27 -6 1 -14 -6 -17 -16 -3 -10 -3 2 0 27 3 25 6 57 6 73 0 31 12 35
27 10 9 -16 10 -16 11 3 0 11 3 24 7 27 11 12 23 7 23 -9z m173 4 c2 -7 -2
-25 -11 -39 -8 -15 -12 -35 -8 -44 8 -22 18 -13 22 18 1 12 3 25 3 30 2 14 31
7 31 -8 0 -8 -4 -15 -10 -15 -5 0 -10 -5 -10 -10 0 -6 6 -10 13 -9 26 3 37 -2
37 -16 0 -18 -21 -20 -37 -4 -6 6 -16 8 -22 5 -16 -10 -13 -26 3 -20 8 3 17 1
20 -4 3 -5 -3 -12 -15 -15 -15 -4 -23 1 -30 20 -9 25 -10 25 -29 8 -27 -24
-38 -11 -14 17 10 13 12 17 4 11 -18 -17 -30 -16 -30 1 0 7 9 16 20 19 11 3
20 11 19 19 0 10 -2 10 -6 1 -9 -24 -30 -14 -25 12 4 25 22 35 22 13 0 -8 6
-6 17 5 21 20 30 21 36 5z m228 5 c0 -5 2 -20 4 -35 2 -16 0 -28 -4 -28 -4 0
-8 6 -8 13 0 6 -3 22 -7 35 -5 13 -3 22 3 22 6 0 11 -3 12 -7z m1869 -3 c-20
-13 -33 -13 -25 0 3 6 14 10 23 10 15 0 15 -2 2 -10z m159 -4 c10 -12 8 -16
-10 -21 -13 -5 -25 -2 -30 6 -17 28 19 41 40 15z m-1759 -18 c0 -16 -3 -19
-11 -11 -6 6 -8 16 -5 22 11 17 16 13 16 -11z m-580 -4 c0 -9 -5 -14 -12 -12
-18 6 -21 28 -4 28 9 0 16 -7 16 -16z m240 -5 c0 -6 -4 -7 -10 -4 -5 3 -10 11
-10 16 0 6 5 7 10 4 6 -3 10 -11 10 -16z m2036 6 c-4 -11 2 -15 21 -15 26 0
26 0 7 -18 -18 -18 -20 -18 -31 -1 -12 16 -9 49 4 49 3 0 3 -7 -1 -15z m444 6
c0 -12 -20 -25 -27 -18 -7 7 6 27 18 27 5 0 9 -4 9 -9z m-2910 -27 c13 -34 13
-41 -5 -41 -10 0 -13 6 -10 18 3 9 0 21 -6 25 -8 4 -9 3 -5 -4 4 -7 3 -12 -2
-12 -12 0 -23 26 -15 34 14 14 34 4 43 -20z m2631 -27 c-17 -17 -22 -2 -9 29
11 28 12 29 16 5 2 -13 -1 -28 -7 -34z m-2071 34 c0 -6 -4 -13 -10 -16 -5 -3
-10 1 -10 9 0 9 5 16 10 16 6 0 10 -4 10 -9z m-160 -16 c-7 -8 -16 -15 -21
-15 -5 0 -9 7 -9 15 0 9 9 15 21 15 18 0 19 -2 9 -15z m1780 1 c0 -8 -7 -16
-15 -20 -13 -4 -14 -2 -5 14 13 23 20 26 20 6z m49 -18 c-2 -13 1 -29 5 -37 6
-10 5 -12 -2 -7 -7 4 -12 2 -12 -3 0 -6 -7 -11 -15 -11 -13 0 -14 3 -3 23 7
12 14 27 14 32 1 6 2 13 3 18 3 19 12 4 10 -15z m-2129 2 c0 -5 -4 -10 -10
-10 -5 0 -10 5 -10 10 0 6 5 10 10 10 6 0 10 -4 10 -10z m600 -13 c0 -7 -5
-18 -12 -25 -16 -16 2 -34 38 -38 15 -2 31 -8 36 -13 4 -6 5 -9 2 -6 -4 3 -13
0 -21 -6 -10 -9 -13 -8 -13 0 0 7 -5 9 -11 5 -6 -3 -14 -3 -18 2 -3 5 -15 14
-26 20 -11 6 -21 20 -22 30 -3 17 -2 17 6 -1 9 -18 10 -18 10 6 1 14 4 29 8
32 11 11 23 8 23 -6z m70 3 c0 -5 -5 -10 -11 -10 -5 0 -7 5 -4 10 3 6 8 10 11
10 2 0 4 -4 4 -10z m1420 -15 c-7 -8 -9 -15 -5 -15 4 0 1 -8 -6 -17 -12 -14
-12 -15 -1 -9 12 7 12 4 1 -15 l-13 -24 -7 30 c-4 17 -7 22 -8 13 -2 -25 -21
-33 -21 -8 0 11 8 24 18 27 9 4 23 15 31 25 7 11 15 17 18 14 3 -3 0 -12 -7
-21z m690 0 c0 -16 -6 -25 -15 -25 -15 0 -21 31 -8 43 13 14 23 6 23 -18z
m151 4 c1 -5 2 -14 3 -21 0 -7 12 -15 26 -19 14 -4 18 -7 9 -8 -9 -1 -20 -11
-23 -23 -6 -21 -7 -22 -17 -5 -5 9 -7 22 -4 27 3 6 -2 9 -12 8 -37 -3 -53 2
-53 17 0 17 25 20 35 5 3 -5 11 -10 18 -10 8 0 8 3 -1 12 -17 17 -15 39 3 32
8 -4 16 -10 16 -15z m-3181 -14 c0 -23 -2 -24 -20 -15 -11 6 -20 17 -20 25 0
8 9 15 20 15 15 0 20 -7 20 -25z m2510 5 c0 -23 -25 -27 -33 -6 -7 16 1 26 20
26 7 0 13 -9 13 -20z m-1965 0 c3 -5 -1 -10 -9 -10 -9 0 -16 5 -16 10 0 6 4
10 9 10 6 0 13 -4 16 -10z m2368 -31 c-3 -10 -11 -24 -19 -30 -12 -9 -14 -5
-14 24 0 19 6 37 13 40 16 5 26 -11 20 -34z m-2233 10 c0 -5 -7 -9 -15 -9 -15
0 -20 12 -9 23 8 8 24 -1 24 -14z m47 -5 c-9 -9 -28 6 -21 18 4 6 10 6 17 -1
6 -6 8 -13 4 -17z m2068 16 c-3 -5 -1 -10 4 -10 6 0 11 5 11 10 0 6 5 10 11
10 6 0 9 -6 7 -12 -3 -7 5 -20 16 -30 17 -14 18 -17 5 -18 -9 0 -22 7 -29 15
-7 8 -21 15 -31 15 -12 0 -16 5 -13 15 4 8 10 15 16 15 5 0 6 -4 3 -10z
m-1901 -16 c3 -8 2 -12 -4 -9 -6 3 -10 10 -10 16 0 14 7 11 14 -7z m1696 -14
c0 -16 -5 -30 -11 -30 -5 0 -7 5 -4 10 4 6 1 9 -6 8 -6 -2 -14 3 -16 10 -3 6
2 12 11 12 9 0 16 5 16 10 0 6 2 10 5 10 3 0 5 -13 5 -30z m165 21 c-3 -5 -1
-12 5 -16 5 -3 10 -21 10 -38 l-1 -32 -18 23 c-11 12 -24 22 -31 22 -12 0 20
49 33 50 5 0 6 -4 2 -9z m-2420 -57 c-3 -21 -10 -33 -13 -27 -4 6 -18 13 -32
14 -17 3 -26 11 -28 28 -3 22 -1 23 27 18 25 -5 31 -3 31 10 0 13 3 14 11 6 7
-7 9 -25 4 -49z m304 -1 c-1 -17 -2 -17 -6 0 -3 10 -14 17 -29 17 -26 0 -31 9
-12 28 15 15 49 -18 47 -45z m138 31 c0 -8 -6 -13 -14 -10 -8 4 -13 -2 -13
-16 0 -12 -3 -19 -6 -15 -11 11 7 66 20 61 7 -3 13 -12 13 -20z m2313 1 c0 -8
-8 -15 -17 -15 -22 0 -43 -42 -37 -73 2 -12 2 -17 -1 -11 -3 7 -15 10 -25 7
-26 -7 -26 13 1 27 20 11 20 12 2 32 -18 21 -18 21 6 15 17 -4 24 -1 28 14 6
22 43 26 43 4z m-290 -16 c0 -5 -4 -9 -10 -9 -5 0 -10 7 -10 16 0 8 5 12 10 9
6 -3 10 -10 10 -16z m340 3 c0 -10 -7 -27 -15 -38 -14 -18 -14 -17 -15 12 0
17 3 34 7 37 12 13 23 7 23 -11z m-2463 -7 c9 -25 -4 -29 -17 -6 -7 15 -7 21
0 21 6 0 13 -7 17 -15z m2283 -5 c11 -20 1 -26 -37 -21 -8 1 -13 -9 -13 -22 0
-14 -7 -27 -15 -31 -10 -4 -15 1 -15 15 0 13 4 18 12 13 7 -4 8 -3 4 5 -10 15
20 61 39 61 8 0 19 -9 25 -20z m-2454 -5 c5 -12 9 -13 21 -3 18 14 36 -7 29
-34 -5 -22 10 -33 18 -13 9 25 28 18 21 -7 -7 -23 -7 -23 10 -3 16 19 16 19
11 -12 -3 -21 0 -35 9 -43 18 -15 20 -50 4 -50 -6 0 -9 9 -6 20 7 27 -4 25
-37 -5 -28 -26 -46 -32 -46 -15 0 6 -4 10 -10 10 -5 0 -10 -7 -10 -16 0 -24
-25 -11 -28 15 -2 14 0 21 7 17 5 -4 8 -14 5 -24 -2 -9 1 -6 8 8 7 14 16 27
20 30 9 7 14 98 5 106 -4 4 -10 -2 -14 -13 -6 -15 -13 -18 -28 -12 -17 6 -17
8 -2 8 20 1 24 21 3 21 -8 0 -16 7 -20 15 -3 9 0 15 10 15 8 0 17 -7 20 -15z
m2153 -21 c-11 -13 -11 -18 -1 -21 21 -8 13 -21 -13 -19 -16 1 -26 8 -30 25
-8 32 2 40 14 10 l10 -24 0 26 c1 31 11 43 24 30 7 -7 5 -16 -4 -27z m-284 16
c-4 -6 -11 -8 -16 -5 -5 4 -9 1 -9 -4 0 -6 7 -11 15 -11 8 0 15 -7 15 -17 0
-14 -2 -14 -20 2 -11 10 -20 14 -20 10 0 -5 -2 -6 -5 -3 -11 11 8 38 27 38 10
0 16 -5 13 -10z m191 -6 c-6 -15 -4 -15 11 -3 15 12 16 12 11 -2 -4 -9 -1 -22
5 -28 18 -18 -4 -13 -25 6 -20 18 -24 43 -7 43 6 0 8 -7 5 -16z m674 -9 c-8
-10 -9 -15 -1 -15 6 0 11 -12 11 -26 0 -14 -4 -23 -10 -19 -5 3 -10 15 -10 26
0 10 -5 19 -12 19 -6 0 -3 9 7 20 21 23 35 19 15 -5z m-2530 -11 c0 -8 10 -14
22 -14 18 0 20 -2 9 -12 -10 -11 -16 -8 -32 11 -20 25 -26 46 -9 36 6 -3 10
-13 10 -21z m2126 -8 c-4 -18 -1 -25 14 -29 27 -7 26 -37 -1 -37 -12 0 -23 8
-26 20 -3 11 -9 17 -14 14 -5 -3 -7 -10 -4 -15 4 -5 -2 -9 -12 -9 -17 -1 -17
-1 0 -11 9 -5 17 -17 17 -24 0 -17 -16 -20 -25 -5 -3 5 -14 1 -25 -10 -11 -11
-24 -20 -30 -20 -18 0 -11 20 17 46 34 32 26 38 -28 20 -43 -15 -64 -13 -54 5
4 5 14 9 25 9 13 0 17 5 13 20 -6 24 13 26 44 5 16 -12 22 -12 26 -2 3 7 6 4
6 -6 1 -26 21 -10 21 17 0 26 8 36 28 36 10 0 12 -7 8 -24z m-2636 -2 c0 -8 5
-12 10 -9 6 3 10 -1 10 -9 0 -20 -20 -32 -30 -16 -5 9 -9 8 -13 -3 -5 -13 3
-15 38 -13 49 3 71 -6 61 -23 -9 -14 -43 -14 -51 -1 -3 6 -12 10 -18 9 -9 0
-9 -2 1 -6 12 -5 18 -43 6 -43 -3 0 -12 7 -20 15 -21 21 -32 19 -36 -7 -2 -13
-10 -23 -18 -23 -20 0 -15 46 6 62 10 7 14 19 10 29 -4 9 -4 24 -1 33 6 21 45
25 45 5z m198 1 c26 -8 29 -20 5 -29 -12 -5 -14 -9 -5 -18 7 -7 12 -22 12 -34
0 -17 -4 -21 -20 -17 -20 5 -35 36 -25 52 3 5 0 13 -6 16 -5 4 -8 14 -4 22 4
13 3 14 -10 3 -9 -7 -13 -21 -10 -31 4 -10 2 -27 -4 -36 -9 -17 -10 -17 -16 0
-4 9 -5 23 -2 31 3 8 -1 17 -9 20 -9 3 -12 11 -9 17 4 6 13 8 21 5 7 -3 16 -1
20 5 3 5 13 8 22 5 10 -2 27 -7 40 -11z m417 5 c-3 -5 3 -10 14 -10 16 0 21
-6 21 -24 0 -13 2 -33 5 -43 3 -10 -2 -3 -10 15 -8 17 -19 32 -25 32 -5 0 -14
9 -20 20 -9 16 -8 20 5 20 9 0 13 -4 10 -10z m1490 -14 c16 7 19 -4 9 -30 -5
-13 -9 -14 -20 -5 -10 8 -14 8 -14 0 0 -6 -7 -11 -16 -11 -10 0 -12 -5 -7 -12
14 -23 13 -46 -2 -58 -12 -10 -15 -9 -15 7 0 10 6 25 13 32 10 11 9 13 -3 9
-10 -4 -16 0 -16 12 0 10 4 16 8 14 4 -3 8 5 8 18 0 32 21 54 32 33 5 -8 15
-12 23 -9z m240 12 c25 -11 37 -58 14 -58 -6 0 -9 8 -6 19 3 14 0 17 -14 14
-25 -7 -55 17 -37 28 16 11 13 11 43 -3z m-1665 -39 c0 -6 -4 -7 -10 -4 -5 3
-10 11 -10 16 0 6 5 7 10 4 6 -3 10 -11 10 -16z m40 -5 c0 -8 -4 -14 -10 -14
-5 0 -10 9 -10 21 0 11 5 17 10 14 6 -3 10 -13 10 -21z m45 -14 c-3 -6 0 -10
7 -10 7 0 1 -10 -15 -21 -25 -19 -27 -25 -21 -68 5 -36 2 -50 -10 -60 -24 -20
-32 -5 -15 27 9 15 14 35 11 45 -4 18 -4 18 -18 0 -13 -17 -13 -17 -14 5 0 12
5 22 11 22 20 0 37 26 28 42 -5 9 -2 23 8 38 14 20 17 21 25 6 5 -9 6 -21 3
-26z m-995 20 c0 -5 -4 -10 -10 -10 -5 0 -10 5 -10 10 0 6 5 10 10 10 6 0 10
-4 10 -10z m2525 0 c3 -6 -1 -13 -10 -16 -19 -8 -30 0 -20 15 8 14 22 14 30 1z
m105 6 c0 -3 -4 -8 -10 -11 -5 -3 -10 -1 -10 4 0 6 5 11 10 11 6 0 10 -2 10
-4z m-1815 -15 c8 -14 -13 -24 -33 -16 -14 5 -14 7 -2 15 19 12 27 12 35 1z
m-281 -25 c-3 -9 -10 -16 -15 -16 -5 0 -9 -9 -9 -19 0 -11 -4 -23 -10 -26 -24
-15 -1 61 24 77 14 9 18 4 10 -16z m319 5 c-3 -11 -12 -22 -20 -26 -21 -7 -22
-4 -12 23 10 28 39 30 32 3z m-128 -28 c-5 -10 -9 -21 -9 -25 -1 -3 -5 -10
-10 -15 -5 -5 -6 2 -3 17 4 14 7 34 7 45 0 14 3 16 11 8 7 -7 8 -19 4 -30z
m206 27 c23 -13 25 -30 4 -30 -8 0 -15 7 -15 16 0 8 -4 12 -10 9 -5 -3 -10 -1
-10 4 0 14 6 14 31 1z m1420 -33 c-8 -8 -11 -5 -11 9 0 27 14 41 18 19 2 -9
-1 -22 -7 -28z m-2264 13 c-3 -11 -1 -20 4 -20 5 0 9 6 10 13 0 6 5 2 11 -11
6 -12 8 -26 3 -30 -4 -4 -10 -1 -12 6 -3 6 -13 12 -22 12 -14 0 -17 6 -13 25
2 14 9 25 14 25 6 0 8 -9 5 -20z m613 6 c0 -3 -4 -8 -10 -11 -5 -3 -10 -1 -10
4 0 6 5 11 10 11 6 0 10 -2 10 -4z m1630 -23 c0 -13 -3 -13 -15 -3 -8 7 -12
16 -9 21 8 13 24 1 24 -18z m630 13 c0 -16 -18 -31 -27 -22 -8 8 5 36 17 36 5
0 10 -6 10 -14z m316 -1 c8 -21 -6 -41 -17 -24 -12 19 -11 39 1 39 6 0 13 -7
16 -15z m-674 -24 c7 11 9 8 5 -8 -3 -13 -1 -23 4 -23 6 0 4 -6 -3 -14 -11
-12 -14 -10 -19 13 -4 14 -7 35 -6 46 0 14 1 13 4 -4 4 -19 7 -21 15 -10z m78
-18 c0 -7 -4 -13 -9 -13 -16 0 -31 27 -25 45 7 17 8 17 21 -1 7 -10 13 -24 13
-31z m-1811 -10 c1 -7 -3 -13 -9 -13 -5 0 -10 15 -9 33 0 27 2 29 9 12 5 -11
9 -26 9 -32z m171 34 c0 -14 -20 -37 -32 -37 -10 0 -11 34 -1 43 11 12 33 8
33 -6z m1210 -7 c0 -11 -4 -20 -9 -20 -5 0 -7 9 -4 20 3 11 7 20 9 20 2 0 4
-9 4 -20z m-1490 -4 c0 -27 -12 -45 -26 -39 -9 3 -14 -2 -14 -15 0 -12 -4 -24
-10 -27 -17 -11 -11 22 11 59 22 37 39 47 39 22z m1760 -21 c-10 -11 -9 -18 4
-30 31 -31 7 -42 -30 -14 -6 5 -14 6 -17 2 -4 -3 -7 2 -7 11 0 11 5 16 13 13
7 -3 19 4 25 14 7 10 15 19 18 19 4 0 1 -7 -6 -15z m315 -14 c14 -23 -15 -18
-30 5 -16 25 -16 25 4 15 11 -6 22 -15 26 -20z m-2605 0 c0 -19 -14 -22 -38
-7 -19 12 -27 -1 -12 -19 8 -9 8 -15 2 -15 -6 0 -13 4 -17 10 -3 6 -15 5 -31
-2 -20 -9 -28 -9 -40 4 -15 15 -14 17 5 23 13 4 28 1 36 -5 12 -10 15 -9 15 3
0 14 19 22 63 26 11 0 17 -6 17 -18z m2690 1 c0 -10 -6 -26 -13 -37 -18 -23
-30 -6 -21 30 7 29 34 34 34 7z m-120 -17 c0 -8 -4 -17 -10 -20 -6 -4 -10 5
-10 20 0 15 4 24 10 20 6 -3 10 -12 10 -20z m-432 3 c-6 -18 -28 -21 -28 -4 0
9 7 16 16 16 9 0 14 -5 12 -12z m210 -19 c-1 -20 -4 -26 -9 -17 -12 18 -11 48
0 48 5 0 9 -14 9 -31z m586 -1 c-4 -6 -10 -5 -15 3 -14 22 -10 33 6 19 8 -7
12 -17 9 -22z m-2474 -18 c0 -5 -4 -10 -10 -10 -5 0 -10 5 -10 10 0 6 5 10 10
10 6 0 10 -4 10 -10z m1715 -9 c3 -5 1 -12 -5 -16 -5 -3 -10 1 -10 9 0 18 6
21 15 7z"/>
<path d="M2343 2185 c-17 -7 -34 -11 -36 -8 -3 3 -3 -4 0 -16 7 -26 11 -26 48
4 36 29 31 38 -12 20z"/>
<path d="M2321 2082 c-6 -12 -10 -33 -10 -49 2 -24 2 -25 6 -5 3 16 8 20 16
13 9 -7 12 -1 11 20 -1 38 -10 46 -23 21z"/>
<path d="M2310 1930 c-8 -5 -12 -12 -9 -15 4 -3 12 1 19 10 14 17 11 19 -10 5z"/>
<path d="M1780 1775 c-15 -19 4 -39 41 -43 20 -2 28 2 32 18 9 34 -49 54 -73
25z"/>
<path d="M1220 1600 c0 -5 5 -10 11 -10 5 0 7 5 4 10 -3 6 -8 10 -11 10 -2 0
-4 -4 -4 -10z"/>
<path d="M400 870 c0 -5 5 -10 11 -10 5 0 7 5 4 10 -3 6 -8 10 -11 10 -2 0 -4
-4 -4 -10z"/>
<path d="M2534 845 c-4 -8 -11 -12 -17 -8 -6 3 -7 1 -3 -5 5 -9 12 -8 26 1 22
13 26 27 10 27 -6 0 -13 -7 -16 -15z"/>
<path d="M655 178 c-16 -28 -16 -31 -2 -19 9 7 23 11 32 8 20 -8 29 11 15 28
-18 21 -23 19 -45 -17z"/>
<path d="M241 154 c0 -11 3 -14 6 -6 3 7 2 16 -1 19 -3 4 -6 -2 -5 -13z"/>
<path d="M2340 1849 c0 -5 5 -7 10 -4 6 3 10 8 10 11 0 2 -4 4 -10 4 -5 0 -10
-5 -10 -11z"/>
<path d="M484 1824 c-2 -28 -1 -28 15 4 9 17 9 22 -1 22 -7 0 -14 -12 -14 -26z"/>
<path d="M410 1509 c-13 -39 -13 -43 7 -59 21 -17 26 -30 24 -62 -1 -14 -10
-18 -45 -18 -38 0 -44 -3 -48 -23 -4 -19 0 -24 26 -27 65 -10 178 -3 186 10 6
9 23 11 62 7 l53 -6 -115 109 c-63 60 -120 110 -126 110 -6 0 -17 -19 -24 -41z"/>
<path d="M444 1052 c1 -12 -7 -17 -28 -17 -16 -1 -31 -6 -33 -12 -6 -17 57
-10 68 8 11 18 11 26 0 33 -5 3 -8 -2 -7 -12z"/>
<path d="M3240 942 c0 -4 10 -13 23 -21 22 -14 22 -14 3 8 -20 22 -26 25 -26
13z"/>
<path d="M6 573 c-9 -9 -7 -33 3 -33 12 0 22 28 12 34 -5 3 -11 3 -15 -1z"/>
<path d="M3126 65 c-4 -10 1 -15 14 -15 11 0 20 7 20 15 0 8 -6 15 -14 15 -8
0 -16 -7 -20 -15z"/>
<path d="M255 10 c-3 -5 -1 -10 4 -10 6 0 11 5 11 10 0 6 -2 10 -4 10 -3 0 -8
-4 -11 -10z"/>
</g>
</svg>
